Coordinates
version=1
nRows=13
nColumns=36
inDegrees=yes

Units are S.I. units (second, meters, Newtons, ...)
If the header above contains a line with 'inDegrees', this indicates whether rotational values are in degrees (yes) or radians (no).

endheader
time	pelvis_tilt	pelvis_list	pelvis_rotation	pelvis_tx	pelvis_ty	pelvis_tz	hip_flexion_r	hip_adduction_r	hip_rotation_r	knee_angle_r	knee_angle_r_beta	ankle_angle_r	subtalar_angle_r	mtp_angle_r	hip_flexion_l	hip_adduction_l	hip_rotation_l	knee_angle_l	knee_angle_l_beta	ankle_angle_l	subtalar_angle_l	mtp_angle_l	lumbar_extension	lumbar_bending	lumbar_rotation	arm_flex_r	arm_add_r	arm_rot_r	elbow_flex_r	pro_sup_r	arm_flex_l	arm_add_l	arm_rot_l	elbow_flex_l	pro_sup_l
     44.85000000	     -2.39733430	     -0.10705681	     -4.27311468	      0.60105788	      0.77322437	      0.73129115	    -15.48118381	      2.83389804	      4.29183718	      6.22328117	      0.10861675	     22.48729005	      2.80286795	     -7.49999987	     39.10862853	     -1.37745885	      0.72931974	     16.40821322	      0.28637735	     13.27183404	      4.20293836	     -7.49999987	     -9.75696987	      0.38317096	      8.17705455	     17.76263781	    -18.01748897	      9.39361982	     25.64236075	     90.29514358	     10.48147397	     -8.74634517	      7.85398667	     13.32594866	     93.62410158
     44.86666670	     -2.46206449	      0.42365508	     -4.20788427	      0.60186469	      0.77126456	      0.72905743	    -15.89455752	      2.03115858	      4.05659981	      7.63089076	      0.13318417	     23.06477260	      2.03632387	     -7.49999987	     40.01949351	     -0.57507278	      0.67613026	     20.54761497	      0.35862353	     11.91418428	      2.84323646	     -7.49999987	     -9.49966667	     -0.27463641	      8.24660959	     18.14771005	    -17.66572275	      9.32839945	     25.83498494	     90.11103726	     10.83411327	     -8.82676120	      7.74776223	     12.63767059	     93.55497334
     44.88333330	     -2.55759895	      1.03835726	     -3.88080468	      0.60557429	      0.77272454	      0.72784992	    -16.24241946	      1.18864983	      3.75582984	      9.17504437	      0.16013473	     22.84586916	      0.95708648	     -7.49999987	     40.55411251	      0.53361339	      1.32577977	     24.16886190	      0.42182622	     10.08957397	      0.99203417	     -7.49999987	     -9.13413953	     -1.08823757	      8.15734312	     18.04447209	    -17.27369460	      9.31108720	     25.95779339	     89.93611696	     10.93085585	     -9.02434976	      7.63843550	     11.86657960	     93.51942864
     44.90000000	     -2.59915599	      1.74916279	     -3.25109925	      0.61114421	      0.77633070	      0.72593079	    -16.58076455	      0.31747597	      3.25029085	     10.75089405	      0.18763850	     21.63430318	     -0.41973108	     -7.49999987	     40.50865611	      1.98255863	      2.31606956	     26.85113078	      0.46864064	      8.10392397	     -0.80038362	     -7.49999987	     -8.80250413	     -2.06287588	      7.85474376	     17.56495121	    -16.77735182	      9.24866145	     25.87092921	     89.74469244	     10.84971824	     -9.33761748	      7.46079054	     10.86292857	     93.52598879
     44.91666670	     -2.45406400	      2.46249783	     -2.45430467	      0.61662800	      0.78062226	      0.72211791	    -16.79018773	     -0.56045064	      2.33579145	     12.73718827	      0.22230587	     19.64960386	     -1.84589371	     -7.49999987	     39.80964805	      3.60658127	      3.37910308	     28.68158910	      0.50058816	      6.50903013	     -2.08136070	     -7.49999987	     -8.76870729	     -3.05180975	      7.32443749	     16.91669704	    -16.24761264	      9.07145208	     25.61676876	     89.58754570	     10.60279285	     -9.66601361	      7.22981598	      9.92348032	     93.56776441
     44.93333330	     -2.14640675	      3.07172945	     -1.61255830	      0.62184515	      0.78530743	      0.71728160	    -16.60193462	     -1.41079009	      0.96928525	     15.59623885	      0.27220572	     16.78067584	     -3.30140964	     -7.49999987	     38.53791326	      5.21186223	      4.46857967	     29.83903425	      0.52078939	      5.23777299	     -3.16027709	     -7.49999987	     -8.97073181	     -3.87839127	      6.56160059	     16.13373399	    -15.71008681	      8.75685751	     25.27905634	     89.33297178	     10.17624446	     -9.92743368	      6.96484890	      9.25378561	     93.46125612
     44.95000000	     -1.63668495	      3.61749943	     -0.86390797	      0.62709425	      0.79022437	      0.71288598	    -15.83369887	     -2.36670776	     -0.61512126	     19.79749546	      0.34553148	     12.46949817	     -4.94002692	     -7.49999987	     36.62815016	      6.73408641	      5.59842456	     30.37558858	      0.53015403	      4.28093740	     -4.18854630	     -7.49999987	     -9.37194265	     -4.49518226	      5.72077480	     15.34777271	    -15.15050702	      8.33781727	     24.75906562	     89.19656249	      9.74311539	    -10.13561741	      6.72253785	      8.60732224	     93.46174107
     44.96666670	     -0.98503849	      3.84729727	     -0.23536522	      0.63121385	      0.79449468	      0.71007915	    -14.25493607	     -3.16415479	     -2.17975827	     25.52755172	      0.44553983	      6.13954319	     -7.08633329	     -7.49999987	     34.19444912	      7.79895782	      6.67350192	     30.37533070	      0.53014953	      3.90957466	     -5.09733038	     -7.49999987	     -9.81143305	     -4.91830593	      4.87858406	     14.57227663	    -14.63712495	      7.63006099	     23.95112911	     89.17787329	      9.28195127	    -10.13820870	      6.42316519	      8.13501271	     93.58949586
     44.98333330	     -0.42448477	      4.19174416	      0.07336378	      0.63328287	      0.79757420	      0.70924460	    -11.50119323	     -4.36572512	     -3.49561842	     32.77310047	      0.57199851	     -1.53446758	     -8.96322071	     -7.49999987	     31.42525145	      8.67458409	      7.37246957	     29.53835348	      0.51554152	      4.06961330	     -5.73725420	     -7.49999987	    -10.15944382	     -5.36824588	      3.98690698	     13.83534307	    -14.06345307	      7.30443263	     23.62299747	     89.15009783	      8.66924840	    -10.24898389	      6.30617898	      7.94076214	     93.57413411
     45.00000000	      0.06930702	      4.35342541	      0.11464377	      0.63276724	      0.79966137	      0.70924464	     -7.84097238	     -5.48108792	     -4.17052261	     40.68328411	      0.71005726	     -9.14302408	    -10.66734404	     -7.49999987	     28.59934667	      9.15892253	      7.93778108	     28.25580265	      0.49315679	      4.78090065	     -6.23032301	     -7.49999987	    -10.63514461	     -5.57506601	      3.22470845	     13.34544880	    -13.62271352	      7.01997738	     23.31265973	     89.09256182	      8.26390277	    -10.35023842	      6.19892144	      7.98370578	     93.47151419
     45.01666670	      0.10648967	      4.30156467	     -0.27640317	      0.63044349	      0.80090727	      0.70893283	     -3.37302002	     -6.24963093	     -4.02255711	     47.99341053	      0.83764303	    -14.78122250	    -12.37730745	     -7.49999987	     26.25789746	      9.12019632	      8.14643436	     26.59922367	      0.46424403	      5.62785292	     -6.58496860	     -7.49999987	    -10.68122760	     -5.51918156	      2.79304808	     13.04849173	    -13.19283069	      6.69161524	     22.82437107	     89.16890924	      8.01842046	    -10.41015627	      6.03731424	      8.00907519	     93.45406555
     45.03333330	     -0.76898573	      3.97611973	     -0.66327076	      0.62812182	      0.80132054	      0.70731809	      1.92312844	     -6.47118720	     -3.78158389	     54.14446554	      0.94499920	    -17.38244661	    -13.00214751	     -7.49999987	     25.25589869	      8.71627827	      8.14742960	     25.39192608	      0.44317271	      6.60387333	     -6.68539396	     -7.49999987	     -9.58249970	     -5.08152208	      2.75701575	     12.43782884	    -12.88037072	      6.08980199	     22.03999177	     89.42058638	      7.76098791	    -10.38305715	      5.61333862	      8.55664282	     93.28841463
     45.05000000	     -1.08969786	      3.65779720	     -1.08507649	      0.62763456	      0.80316074	      0.70520829	      6.20301330	     -6.34250280	     -3.45266466	     58.85758892	      1.02725872	    -17.55412318	    -13.21537874	     -7.49999987	     23.70777858	      8.28878314	      8.06207374	     24.17542999	      0.42194085	      7.20697753	     -6.95768130	     -7.49999987	     -9.32221750	     -4.62456837	      2.58057368	     11.85776308	    -12.62020843	      5.69183825	     21.75888493	     87.67924749	      7.84408246	    -10.32179489	      5.43649214	      8.82532307	     91.05681316
